<?xml version="1.0" encoding="iso-8859-1"?>
<!DOCTYPE svg PUBLIC "-//W3C//DTD SVG 1.1//EN" "http://www.w3.org/Graphics/SVG/1.1/DTD/svg11.dtd">
<svg version="1.1" id="Capa_1" xmlns="http://www.w3.org/2000/svg" xmlns:xlink="http://www.w3.org/1999/xlink" x="0px" y="0px"
	 viewBox="0 0 54 54" style="enable-background:new 0 0 54 54;" xml:space="preserve">
<g stroke="#5662E1" fill="#5662E1">
	<path d="M27.707,7.293c-0.092-0.092-0.203-0.165-0.325-0.216c-0.245-0.101-0.52-0.101-0.764,0
		c-0.122,0.051-0.233,0.124-0.325,0.216l-16,16c-0.391,0.391-0.391,1.023,0,1.414C10.488,24.902,10.744,25,11,25
		s0.512-0.098,0.707-0.293L26,10.414V53c0,0.552,0.448,1,1,1s1-0.448,1-1V10.414l14.293,14.293C42.488,24.902,42.744,25,43,25
		s0.512-0.098,0.707-0.293c0.391-0.391,0.391-1.023,0-1.414L27.707,7.293z"/>
	<path d="M11,2h32c0.552,0,1-0.448,1-1s-0.448-1-1-1H11c-0.552,0-1,0.448-1,1S10.448,2,11,2z"/>
</g>
</svg>